<svg viewBox="-10 0 88 50" class="styles_svgIcon__UoR7M styles_logo__ZQop_" name="Ally" data-testid="Ally" xmlns="http://www.w3.org/2000/svg"><path fill-rule="evenodd" d="M23.469.033h8.784v39.126H23.47zm12.963 0h8.784v39.126h-8.784zm41.453 10.826L63.213 50.033h-9.307l4.653-11.301-10.92-27.873h9.353l5.888 17.047h.095l5.603-17.047zM19.48 25.152q0-2.47-.902-5.034-.902-2.564-2.706-4.63-1.805-2.065-4.535-3.37-2.73-1.306-6.434-1.306-3.656 0-6.386 1.305-2.73 1.306-4.559 3.372-1.828 2.065-2.706 4.63-.879 2.563-.879 5.033 0 2.374.807 4.795.808 2.422 2.446 4.464 1.638 2.042 4.107 3.419 2.47 1.377 5.793 1.614l7.55-8.12H5.093q-2.612 0-4.487-1.756-1.876-1.757-1.876-4.416 0-2.66 1.876-4.416 1.875-1.757 4.487-1.757 2.564 0 4.44 1.757 1.875 1.757 1.875 4.416v13.817h8.072V28.143z"></path></svg>