<svg width="91" height="56" viewBox="0 0 91 56" fill="none" xmlns="http://www.w3.org/2000/svg">
<path d="M45.5 49.8588C51.9012 44.7274 56 36.8424 56 28C56 19.1576 51.9012 11.2726 45.5 6.14118C39.0988 11.2726 35 19.1576 35 28C35 36.8424 39.0988 44.7274 45.5 49.8588Z" fill="#F16522"/>
<path d="M45.5 6.14118C40.7064 2.2985 34.6216 0 28 0C12.536 0 0 12.536 0 28C0 43.464 12.536 56 28 56C34.7655 56 40.9706 53.6005 45.8106 49.6062C45.7077 49.6911 45.6041 49.7753 45.5 49.8588C39.0988 44.7274 35 36.8424 35 28C35 19.1576 39.0988 11.2726 45.5 6.14118Z" fill="#E52523"/>
<path d="M63 56C78.464 56 91 43.464 91 28C91 12.536 78.464 0 63 0C56.3784 0 50.2936 2.2985 45.5 6.14118C51.9012 11.2726 56 19.1576 56 28C56 36.8424 51.9012 44.7274 45.5 49.8588C45.2033 49.621 44.9116 49.3772 44.625 49.1278C49.5425 53.4082 55.9686 56 63 56Z" fill="#F89E1B"/>
<path fill-rule="evenodd" clip-rule="evenodd" d="M90.0105 44.2723V46.6056H89.8116V44.8416L89.5069 46.3637H89.3005L88.9965 44.8449V46.6056H88.7969V44.2723H89.0796L89.4041 45.8766L89.7286 44.2723H90.0105ZM88.2233 44.6688V46.6056H88.0268V44.6688H87.6649V44.2739H88.5852V44.6688H88.2233Z" fill="#F89E1B"/>
</svg>
